RobotoSerifMicro-Regular Italic 04.ufo
<glyph name="four" format="2">
  <advance width="560"/>
  <unicode hex="0034"/>
  <outline>
    <contour>
      <point x="-9" y="101.0" type="line"/>
      <point x="490" y="101.0" type="line"/>
      <point x="507" y="168.0" type="line"/>
      <point x="37" y="168.0" type="line"/>
      <point x="41" y="130.0" type="line"/>
      <point x="427" y="611.0" type="line"/>
      <point x="450" y="639.0" type="line"/>
      <point x="380" y="639.0" type="line"/>
      <point x="11" y="180.0" type="line"/>
    </contour>
    <contour>
      <point x="331" y="-83.0" type="line"/>
      <point x="511" y="639.0" type="line"/>
      <point x="421" y="639.0" type="line"/>
      <point x="421" y="627.0" type="line"/>
      <point x="244" y="-83.0" type="line"/>
    </contour>
  </outline>
</glyph>
<glyph name="five" format="2">
  <advance width="560"/>
  <unicode hex="0035"/>
  <outline>
    <contour>
      <point x="86" y="-90"/>
      <point x="26" y="-11"/>
      <point x="2" y="85" type="curve"/>
      <point x="65" y="115" type="line"/>
      <point x="82" y="47"/>
      <point x="114" y="-30"/>
      <point x="224" y="-30" type="curve" smooth="yes"/>
      <point x="342.0" y="-30.0"/>
      <point x="391" y="85"/>
      <point x="391" y="232" type="curve" smooth="yes"/>
      <point x="391" y="295"/>
      <point x="359.0" y="336.0"/>
      <point x="293" y="336" type="curve" smooth="yes"/>
      <point x="236" y="336"/>
      <point x="180" y="310"/>
      <point x="136" y="242" type="curve"/>
      <point x="78" y="242" type="line"/>
      <point x="177" y="639" type="line"/>
      <point x="539" y="639" type="line"/>
      <point x="495" y="562" type="line"/>
      <point x="196" y="562" type="line"/>
      <point x="236" y="619" type="line"/>
      <point x="151" y="278" type="line"/>
      <point x="147" y="276"/>
      <point x="139" y="269"/>
      <point x="126" y="263" type="curve"/>
      <point x="176" y="351"/>
      <point x="234" y="396"/>
      <point x="318" y="396" type="curve" smooth="yes"/>
      <point x="417.0" y="396.0"/>
      <point x="485" y="333"/>
      <point x="485" y="222" type="curve" smooth="yes"/>
      <point x="485" y="57"/>
      <point x="396" y="-90"/>
      <point x="223" y="-90" type="curve" smooth="yes"/>
    </contour>
  </outline>
</glyph>
<glyph name="six" format="2">
  <advance width="560"/>
  <unicode hex="0036"/>
  <outline>
    <contour>
      <point x="244" y="-10" type="curve" smooth="yes"/>
      <point x="104" y="-10"/>
      <point x="38" y="64"/>
      <point x="38" y="197" type="curve" smooth="yes"/>
      <point x="38.0" y="454"/>
      <point x="182" y="728"/>
      <point x="570" y="740" type="curve"/>
      <point x="562" y="675" type="line"/>
      <point x="163" y="667"/>
      <point x="129.0" y="333.0"/>
      <point x="129" y="184" type="curve" smooth="yes"/>
      <point x="129" y="92"/>
      <point x="164" y="50"/>
      <point x="249" y="50" type="curve" smooth="yes"/>
      <point x="358" y="50.0"/>
      <point x="414" y="157"/>
      <point x="414" y="299" type="curve" smooth="yes"/>
      <point x="414.0" y="367.0"/>
      <point x="382" y="408"/>
      <point x="324" y="408" type="curve" smooth="yes"/>
      <point x="255" y="408"/>
      <point x="202" y="378"/>
      <point x="120" y="247" type="curve"/>
      <point x="124" y="307" type="line"/>
      <point x="192" y="415"/>
      <point x="250" y="468"/>
      <point x="352" y="468" type="curve" smooth="yes"/>
      <point x="456.0" y="468.0"/>
      <point x="509" y="401"/>
      <point x="509" y="294" type="curve" smooth="yes"/>
      <point x="509.0" y="141.0"/>
      <point x="430.0" y="-10.0"/>
    </contour>
  </outline>
</glyph>
<glyph name="nine" format="2">
  <advance width="560"/>
  <unicode hex="0039"/>
  <outline>
    <contour>
      <point x="317" y="649" type="curve" smooth="yes"/>
      <point x="457" y="649"/>
      <point x="522" y="575"/>
      <point x="522" y="442" type="curve" smooth="yes"/>
      <point x="522" y="165"/>
      <point x="378" y="-89"/>
      <point x="-10" y="-101" type="curve"/>
      <point x="-2" y="-36" type="line"/>
      <point x="397" y="-28"/>
      <point x="431" y="286"/>
      <point x="431" y="455" type="curve" smooth="yes"/>
      <point x="431" y="547"/>
      <point x="397" y="589"/>
      <point x="312" y="589" type="curve" smooth="yes"/>
      <point x="203" y="589"/>
      <point x="146" y="479"/>
      <point x="146" y="347" type="curve" smooth="yes"/>
      <point x="146" y="281"/>
      <point x="178" y="241"/>
      <point x="236" y="241" type="curve" smooth="yes"/>
      <point x="305" y="241"/>
      <point x="358" y="271"/>
      <point x="440" y="392" type="curve"/>
      <point x="446" y="342" type="line"/>
      <point x="371" y="234"/>
      <point x="316" y="181"/>
      <point x="203" y="181" type="curve" smooth="yes"/>
      <point x="104" y="181"/>
      <point x="51" y="247"/>
      <point x="51" y="351" type="curve" smooth="yes"/>
      <point x="51" y="495"/>
      <point x="131" y="649"/>
    </contour>
  </outline>
</glyph>
<glyph name="C" format="2">
  <advance width="775"/>
  <unicode hex="0043"/>
  <anchor x="415" y="741" name="top"/>
  <anchor x="415" y="0" name="bottom"/>
  <outline>
    <contour>
      <point x="664" y="549" type="curve"/>
      <point x="719" y="720" type="line"/>
      <point x="789" y="720" type="line"/>
      <point x="724" y="458" type="line"/>
      <point x="651" y="458" type="line"/>
      <point x="644" y="600"/>
      <point x="568" y="671"/>
      <point x="438" y="671" type="curve" smooth="yes"/>
      <point x="230" y="671"/>
      <point x="153" y="438"/>
      <point x="153" y="264" type="curve" smooth="yes"/>
      <point x="153" y="112"/>
      <point x="233" y="39"/>
      <point x="380" y="39" type="curve" smooth="yes"/>
      <point x="517" y="39"/>
      <point x="592" y="131"/>
      <point x="643" y="240" type="curve"/>
      <point x="702" y="210" type="line"/>
      <point x="638" y="68"/>
      <point x="538" y="-25"/>
      <point x="373" y="-25" type="curve" smooth="yes"/>
      <point x="181" y="-25"/>
      <point x="53" y="87"/>
      <point x="53" y="281" type="curve" smooth="yes"/>
      <point x="53" y="507"/>
      <point x="193" y="735"/>
      <point x="441" y="735" type="curve" smooth="yes"/>
      <point x="588" y="735"/>
      <point x="669" y="660"/>
      <point x="681" y="509" type="curve"/>
      <point x="660" y="513"/>
      <point x="655" y="524"/>
    </contour>
  </outline>
</glyph>
<glyph name="G" format="2">
  <advance width="828"/>
  <unicode hex="0047"/>
  <guideline x="0" y="486" angle="0" identifier="9srZDLbHFp"/>
  <guideline x="0" y="339" angle="0" identifier="VQgRz40Tl2"/>
  <anchor x="398" y="741" name="top"/>
  <anchor x="398" y="0" name="bottom"/>
  <outline>
    <contour>
      <point x="496" y="339" type="line"/>
      <point x="481" y="277" type="line"/>
      <point x="502" y="277" type="line" smooth="yes"/>
      <point x="569" y="277"/>
      <point x="606" y="267"/>
      <point x="598" y="237" type="curve" smooth="yes"/>
      <point x="562" y="101" type="line"/>
      <point x="547" y="89"/>
      <point x="493" y="39"/>
      <point x="381" y="39" type="curve" smooth="yes"/>
      <point x="245" y="39"/>
      <point x="153" y="109"/>
      <point x="153" y="264" type="curve" smooth="yes"/>
      <point x="153" y="482"/>
      <point x="248" y="671"/>
      <point x="444" y="671" type="curve" smooth="yes"/>
      <point x="577" y="671"/>
      <point x="641" y="606"/>
      <point x="652" y="486" type="curve"/>
      <point x="725" y="486" type="line"/>
      <point x="783" y="720" type="line"/>
      <point x="713" y="720" type="line"/>
      <point x="666" y="577" type="line"/>
      <point x="660" y="547"/>
      <point x="664" y="547"/>
      <point x="676" y="561" type="curve"/>
      <point x="665" y="678"/>
      <point x="574" y="735"/>
      <point x="447" y="735" type="curve" smooth="yes"/>
      <point x="214" y="735"/>
      <point x="53" y="539"/>
      <point x="53" y="281" type="curve" smooth="yes"/>
      <point x="53" y="96"/>
      <point x="174" y="-25"/>
      <point x="376" y="-25" type="curve" smooth="yes"/>
      <point x="530" y="-25"/>
      <point x="612" y="54"/>
      <point x="648" y="85" type="curve"/>
      <point x="688" y="237" type="line" smooth="yes"/>
      <point x="697" y="270"/>
      <point x="724" y="277"/>
      <point x="773" y="277" type="curve" smooth="yes"/>
      <point x="795" y="277" type="line"/>
      <point x="810" y="339" type="line"/>
    </contour>
  </outline>
</glyph>
<glyph name="m" format="2">
  <advance width="965"/>
  <unicode hex="006D"/>
  <outline>
    <contour>
      <point x="53" y="0" type="line"/>
      <point x="167" y="460" type="line" smooth="yes"/>
      <point x="171" y="478"/>
      <point x="130" y="494"/>
      <point x="79" y="505" type="curve" smooth="yes"/>
      <point x="70" y="507" type="line"/>
      <point x="84" y="565" type="line"/>
      <point x="244" y="565" type="line"/>
      <point x="231" y="394" type="line"/>
      <point x="236" y="385" type="line"/>
      <point x="141" y="0" type="line"/>
    </contour>
    <contour>
      <point x="469" y="575" type="curve" smooth="yes"/>
      <point x="524" y="575"/>
      <point x="549" y="549"/>
      <point x="549" y="504" type="curve" smooth="yes"/>
      <point x="549" y="496"/>
      <point x="544" y="370"/>
      <point x="544" y="369" type="curve"/>
      <point x="447" y="0" type="line"/>
      <point x="357" y="0" type="line"/>
      <point x="462" y="394" type="line" smooth="yes"/>
      <point x="472" y="430"/>
      <point x="477" y="454"/>
      <point x="477" y="471" type="curve" smooth="yes"/>
      <point x="477" y="494"/>
      <point x="468" y="505"/>
      <point x="431" y="505" type="curve" smooth="yes"/>
      <point x="362.0" y="505.0"/>
      <point x="298" y="443"/>
      <point x="215" y="337" type="curve"/>
      <point x="209" y="373" type="line"/>
      <point x="284" y="494"/>
      <point x="361" y="575"/>
    </contour>
    <contour>
      <point x="730" y="243" type="curve" smooth="yes"/>
      <point x="772" y="394" type="line" smooth="yes"/>
      <point x="782" y="430"/>
      <point x="787" y="454"/>
      <point x="787" y="471" type="curve" smooth="yes"/>
      <point x="787" y="494"/>
      <point x="777" y="505"/>
      <point x="738" y="505" type="curve" smooth="yes"/>
      <point x="671.0" y="505.0"/>
      <point x="608" y="443"/>
      <point x="525" y="337" type="curve"/>
      <point x="519" y="373" type="line"/>
      <point x="594" y="494"/>
      <point x="675" y="575"/>
      <point x="784" y="575" type="curve" smooth="yes"/>
      <point x="847" y="575"/>
      <point x="880" y="549"/>
      <point x="880" y="504" type="curve" smooth="yes"/>
      <point x="880" y="476"/>
      <point x="871" y="430"/>
      <point x="860" y="391" type="curve" smooth="yes"/>
      <point x="821" y="248" type="line" smooth="yes"/>
      <point x="789" y="132"/>
      <point x="778" y="88"/>
      <point x="778" y="76" type="curve" smooth="yes"/>
      <point x="778" y="67"/>
      <point x="782" y="63"/>
      <point x="794" y="63" type="curve" smooth="yes"/>
      <point x="897" y="63" type="line"/>
      <point x="886" y="0" type="line"/>
      <point x="770" y="0" type="line"/>
      <point x="717.0" y="0"/>
      <point x="686.0" y="20.0"/>
      <point x="686" y="59" type="curve" smooth="yes"/>
      <point x="686.0" y="87.0"/>
      <point x="695" y="117"/>
    </contour>
  </outline>
</glyph>
<glyph name="o" format="2">
  <advance width="644"/>
  <unicode hex="006F"/>
  <anchor x="308" y="551" name="top"/>
  <anchor x="308" y="0" name="bottom"/>
  <anchor x="412" y="0" name="right"/>
  <outline>
    <contour>
      <point x="281" y="-13" type="curve" smooth="yes"/>
      <point x="483" y="-13"/>
      <point x="597" y="172"/>
      <point x="597" y="358" type="curve" smooth="yes"/>
      <point x="597" y="490"/>
      <point x="511" y="575"/>
      <point x="363" y="575" type="curve" smooth="yes"/>
      <point x="161" y="575"/>
      <point x="47" y="390"/>
      <point x="47" y="204" type="curve" smooth="yes"/>
      <point x="47" y="72"/>
      <point x="133" y="-13"/>
    </contour>
    <contour>
      <point x="353" y="511" type="curve" smooth="yes"/>
      <point x="462" y="511"/>
      <point x="503" y="461"/>
      <point x="503" y="367" type="curve" smooth="yes"/>
      <point x="503" y="215"/>
      <point x="442" y="51"/>
      <point x="291" y="51" type="curve" smooth="yes"/>
      <point x="182" y="51"/>
      <point x="141" y="101"/>
      <point x="141" y="195" type="curve" smooth="yes"/>
      <point x="141" y="347"/>
      <point x="202" y="511"/>
    </contour>
  </outline>
</glyph>
<glyph name="v" format="2">
  <advance width="567"/>
  <unicode hex="0076"/>
  <outline>
    <contour>
      <point x="252" y="32" type="line"/>
      <point x="202" y="565" type="line"/>
      <point x="42" y="565" type="line"/>
      <point x="28" y="507" type="line"/>
      <point x="41" y="504" type="line" smooth="yes"/>
      <point x="87" y="493"/>
      <point x="126" y="479"/>
      <point x="128" y="460" type="curve" smooth="yes"/>
      <point x="176" y="0" type="line"/>
      <point x="268" y="0" type="line"/>
      <point x="576" y="555" type="line"/>
      <point x="576" y="565" type="line"/>
      <point x="492" y="565" type="line"/>
      <point x="235" y="40" type="line"/>
    </contour>
  </outline>
</glyph>
<glyph name="eng" format="2">
  <advance width="656"/>
  <unicode hex="014B"/>
  <outline>
    <contour>
      <point x="53" y="0" type="line"/>
      <point x="167" y="460" type="line" smooth="yes"/>
      <point x="171" y="478"/>
      <point x="130" y="494"/>
      <point x="79" y="505" type="curve" smooth="yes"/>
      <point x="70" y="507" type="line"/>
      <point x="84" y="565" type="line"/>
      <point x="244" y="565" type="line"/>
      <point x="231" y="394" type="line"/>
      <point x="236" y="385" type="line"/>
      <point x="141" y="0" type="line"/>
    </contour>
    <contour>
      <point x="462" y="-73" type="line"/>
      <point x="432" y="-196"/>
      <point x="363" y="-250"/>
      <point x="255" y="-250" type="curve" smooth="yes"/>
      <point x="202" y="-250"/>
      <point x="158" y="-235"/>
      <point x="141" y="-226" type="curve"/>
      <point x="156" y="-162" type="line"/>
      <point x="182" y="-173"/>
      <point x="216" y="-187"/>
      <point x="262" y="-187" type="curve" smooth="yes"/>
      <point x="327" y="-187"/>
      <point x="354" y="-158"/>
      <point x="372" y="-88" type="curve" smooth="yes"/>
      <point x="493" y="394" type="line" smooth="yes"/>
      <point x="502" y="430"/>
      <point x="508" y="456"/>
      <point x="508" y="473" type="curve" smooth="yes"/>
      <point x="508" y="496"/>
      <point x="492" y="507"/>
      <point x="447" y="507" type="curve" smooth="yes"/>
      <point x="373" y="507"/>
      <point x="305" y="443"/>
      <point x="217" y="337" type="curve"/>
      <point x="209" y="373" type="line"/>
      <point x="291" y="492"/>
      <point x="382" y="575"/>
      <point x="494" y="575" type="curve" smooth="yes"/>
      <point x="564" y="575"/>
      <point x="600" y="549"/>
      <point x="600" y="504" type="curve" smooth="yes"/>
      <point x="600" y="476"/>
      <point x="590" y="430"/>
      <point x="580" y="391" type="curve"/>
    </contour>
  </outline>
</glyph>
<glyph name="oe" format="2">
  <advance width="1016"/>
  <unicode hex="0153"/>
  <outline>
    <contour>
      <point x="513" y="210" type="curve" smooth="yes"/>
      <point x="513" y="81"/>
      <point x="581" y="-12"/>
      <point x="725" y="-12" type="curve" smooth="yes"/>
      <point x="820" y="-12"/>
      <point x="905" y="38"/>
      <point x="954" y="110" type="curve"/>
      <point x="912" y="153" type="line"/>
      <point x="869" y="92"/>
      <point x="814" y="52"/>
      <point x="732" y="52" type="curve" smooth="yes"/>
      <point x="635" y="52"/>
      <point x="582" y="95"/>
      <point x="582" y="207" type="curve" smooth="yes"/>
      <point x="582" y="366"/>
      <point x="655" y="511"/>
      <point x="795" y="511" type="curve" smooth="yes"/>
      <point x="865" y="511"/>
      <point x="902" y="483"/>
      <point x="902" y="430" type="curve" smooth="yes"/>
      <point x="902" y="336"/>
      <point x="822" y="284"/>
      <point x="576" y="278" type="curve"/>
      <point x="571" y="225" type="line"/>
      <point x="847" y="229"/>
      <point x="986" y="299"/>
      <point x="986" y="433" type="curve" smooth="yes"/>
      <point x="986" y="513"/>
      <point x="929" y="575"/>
      <point x="804" y="575" type="curve" smooth="yes"/>
      <point x="620" y="575"/>
      <point x="513" y="400"/>
    </contour>
    <contour>
      <point x="281" y="-13" type="curve" smooth="yes"/>
      <point x="483" y="-13"/>
      <point x="581" y="182"/>
      <point x="581" y="358" type="curve" smooth="yes"/>
      <point x="581" y="480"/>
      <point x="511" y="575"/>
      <point x="363" y="575" type="curve" smooth="yes"/>
      <point x="161" y="575"/>
      <point x="47" y="390"/>
      <point x="47" y="204" type="curve" smooth="yes"/>
      <point x="47" y="72"/>
      <point x="133" y="-13"/>
    </contour>
    <contour>
      <point x="353" y="511" type="curve" smooth="yes"/>
      <point x="462" y="511"/>
      <point x="505" y="461"/>
      <point x="505" y="367" type="curve" smooth="yes"/>
      <point x="505" y="215"/>
      <point x="442" y="51"/>
      <point x="291" y="51" type="curve" smooth="yes"/>
      <point x="182" y="51"/>
      <point x="141" y="101"/>
      <point x="141" y="195" type="curve" smooth="yes"/>
      <point x="141" y="347"/>
      <point x="202" y="511"/>
    </contour>
  </outline>
</glyph>
<glyph name="pi" format="2">
  <advance width="768"/>
  <unicode hex="03C0"/>
  <guideline x="0" y="-10" angle="0" identifier="cGFj87XS54"/>
  <guideline x="0" y="55" angle="0" identifier="3rGJvJ1WQs"/>
  <outline>
    <contour>
      <point x="229" y="0" type="line"/>
      <point x="349" y="478" type="line"/>
      <point x="288" y="478" type="line"/>
      <point x="210" y="208"/>
      <point x="182" y="184"/>
      <point x="136" y="0" type="curve"/>
    </contour>
    <contour>
      <point x="746" y="432" type="line"/>
      <point x="766" y="512" type="line"/>
      <point x="276" y="512" type="line" smooth="yes"/>
      <point x="140.0" y="512.0"/>
      <point x="69" y="445"/>
      <point x="32" y="319" type="curve"/>
      <point x="95" y="302" type="line"/>
      <point x="126" y="389"/>
      <point x="163.0" y="432"/>
      <point x="253" y="432" type="curve" smooth="yes"/>
    </contour>
    <contour>
      <point x="514" y="136" type="curve" smooth="yes"/>
      <point x="599" y="478" type="line"/>
      <point x="533" y="478" type="line"/>
      <point x="446" y="182"/>
      <point x="408" y="142"/>
      <point x="408" y="80" type="curve" smooth="yes"/>
      <point x="408" y="20"/>
      <point x="450" y="-10"/>
      <point x="532" y="-10" type="curve" smooth="yes"/>
      <point x="608" y="-10"/>
      <point x="643" y="38"/>
      <point x="679" y="101" type="curve"/>
      <point x="634" y="128" type="line"/>
      <point x="607" y="87"/>
      <point x="586" y="55"/>
      <point x="545" y="55" type="curve" smooth="yes"/>
      <point x="518" y="55"/>
      <point x="505" y="63"/>
      <point x="505" y="86" type="curve"/>
      <point x="505" y="101"/>
      <point x="510" y="121"/>
    </contour>
  </outline>
</glyph>
<glyph name="eight.prop" format="2">
  <advance width="580"/>
  <outline>
    <contour>
      <point x="423" y="238" type="curve" smooth="yes"/>
      <point x="423" y="218"/>
      <point x="421" y="195"/>
      <point x="414" y="169" type="curve" smooth="yes"/>
      <point x="389" y="80"/>
      <point x="341" y="48"/>
      <point x="269" y="48" type="curve" smooth="yes"/>
      <point x="167" y="48"/>
      <point x="117" y="89"/>
      <point x="117" y="169" type="curve" smooth="yes"/>
      <point x="117" y="186"/>
      <point x="119" y="207"/>
      <point x="124" y="228" type="curve" smooth="yes"/>
      <point x="150" y="322"/>
      <point x="202" y="347"/>
      <point x="283" y="347" type="curve" smooth="yes"/>
      <point x="369" y="347"/>
      <point x="423" y="314"/>
    </contour>
    <contour>
      <point x="480" y="563" type="curve" smooth="yes"/>
      <point x="480" y="537"/>
      <point x="477" y="517"/>
      <point x="470" y="497" type="curve" smooth="yes"/>
      <point x="444.0" y="423.0"/>
      <point x="409" y="397"/>
      <point x="344" y="397" type="curve" smooth="yes"/>
      <point x="267" y="397"/>
      <point x="214" y="427"/>
      <point x="214" y="500" type="curve" smooth="yes"/>
      <point x="214" y="516"/>
      <point x="216" y="533"/>
      <point x="221" y="552" type="curve" smooth="yes"/>
      <point x="240" y="627"/>
      <point x="284" y="662"/>
      <point x="356" y="662" type="curve" smooth="yes"/>
      <point x="442" y="662"/>
      <point x="480" y="628"/>
    </contour>
    <contour>
      <point x="374" y="368" type="curve"/>
      <point x="388" y="359" type="line"/>
      <point x="390" y="371" type="line"/>
      <point x="374" y="366" type="line"/>
      <point x="479" y="373"/>
      <point x="563" y="432"/>
      <point x="563" y="554" type="curve" smooth="yes"/>
      <point x="563" y="653"/>
      <point x="489" y="720"/>
      <point x="359" y="720" type="curve" smooth="yes"/>
      <point x="209" y="720"/>
      <point x="131" y="623"/>
      <point x="131" y="523" type="curve" smooth="yes"/>
      <point x="131" y="446"/>
      <point x="183" y="396"/>
      <point x="258" y="376" type="curve"/>
      <point x="241" y="387" type="line"/>
      <point x="239" y="372" type="line"/>
      <point x="258" y="378" type="line"/>
      <point x="109" y="371"/>
      <point x="19" y="301"/>
      <point x="19" y="178" type="curve" smooth="yes"/>
      <point x="19" y="63"/>
      <point x="111" y="-10"/>
      <point x="267" y="-10" type="curve" smooth="yes"/>
      <point x="436" y="-10"/>
      <point x="521" y="87"/>
      <point x="521" y="201" type="curve" smooth="yes"/>
      <point x="521" y="291"/>
      <point x="454" y="347"/>
    </contour>
  </outline>
</glyph>
<glyph name="five.lin" format="2">
  <advance width="560"/>
  <outline>
    <contour>
      <point x="389" y="307" type="curve" smooth="yes"/>
      <point x="389" y="369"/>
      <point x="357" y="409"/>
      <point x="291" y="409" type="curve" smooth="yes"/>
      <point x="234" y="409"/>
      <point x="178" y="383"/>
      <point x="134" y="315" type="curve"/>
      <point x="76" y="315" type="line"/>
      <point x="175" y="710" type="line"/>
      <point x="537" y="710" type="line"/>
      <point x="493" y="633" type="line"/>
      <point x="194" y="633" type="line"/>
      <point x="234" y="690" type="line"/>
      <point x="149" y="351" type="line"/>
      <point x="145" y="349"/>
      <point x="137" y="342"/>
      <point x="124" y="336" type="curve"/>
      <point x="174" y="424"/>
      <point x="232" y="469"/>
      <point x="316" y="469" type="curve" smooth="yes"/>
      <point x="415" y="469"/>
      <point x="483" y="407"/>
      <point x="483" y="297" type="curve" smooth="yes"/>
      <point x="483" y="134"/>
      <point x="394" y="-11"/>
      <point x="221" y="-11" type="curve" smooth="yes"/>
      <point x="84" y="-11"/>
      <point x="24" y="68"/>
      <point x="0" y="164" type="curve"/>
      <point x="63" y="194" type="line"/>
      <point x="80" y="126"/>
      <point x="112" y="49"/>
      <point x="222" y="49" type="curve" smooth="yes"/>
      <point x="340" y="49"/>
      <point x="389" y="162"/>
    </contour>
  </outline>
</glyph>
<glyph name="florin.proportional" format="2">
  <advance width="510"/>
  <guideline x="0" y="721.0" angle="0" identifier="TCZFbbqVrl"/>
  <guideline x="0" y="790.0" angle="0" identifier="p149JPUvHP"/>
  <guideline x="0" y="-181.0" angle="0" identifier="NQKugrHAP8"/>
  <guideline x="0" y="-250.0" angle="0" identifier="ttySlug0Gi"/>
  <outline>
    <contour>
      <point x="135" y="565" type="line"/>
      <point x="111" y="503" type="line"/>
      <point x="478" y="503" type="line"/>
      <point x="502" y="565" type="line"/>
    </contour>
    <contour>
      <point x="278" y="657" type="curve" smooth="yes"/>
      <point x="20" y="-79" type="line" smooth="yes"/>
      <point x="-7" y="-154"/>
      <point x="-32" y="-181"/>
      <point x="-87" y="-181" type="curve" smooth="yes"/>
      <point x="-113.0" y="-181.0"/>
      <point x="-144" y="-172"/>
      <point x="-168" y="-164" type="curve"/>
      <point x="-188" y="-232" type="line"/>
      <point x="-165" y="-241"/>
      <point x="-130" y="-250"/>
      <point x="-93" y="-250" type="curve" smooth="yes"/>
      <point x="1.0" y="-250.0"/>
      <point x="61" y="-201"/>
      <point x="101" y="-90" type="curve" smooth="yes"/>
      <point x="355" y="633" type="line" smooth="yes"/>
      <point x="377" y="697"/>
      <point x="402" y="721"/>
      <point x="472" y="721" type="curve" smooth="yes"/>
      <point x="512" y="721"/>
      <point x="551" y="712"/>
      <point x="575" y="705" type="curve"/>
      <point x="596" y="771" type="line"/>
      <point x="579" y="778"/>
      <point x="530" y="790"/>
      <point x="475" y="790" type="curve" smooth="yes"/>
      <point x="365" y="790"/>
      <point x="308" y="743"/>
    </contour>
  </outline>
</glyph>
<glyph name="nine.lin" format="2">
  <advance width="560"/>
  <outline>
    <contour>
      <point x="321" y="735" type="curve" smooth="yes"/>
      <point x="461" y="735"/>
      <point x="526" y="661"/>
      <point x="526" y="528" type="curve" smooth="yes"/>
      <point x="526" y="251"/>
      <point x="382" y="-3"/>
      <point x="-6" y="-15" type="curve"/>
      <point x="2" y="50" type="line"/>
      <point x="401" y="58"/>
      <point x="435" y="372"/>
      <point x="435" y="541" type="curve" smooth="yes"/>
      <point x="435" y="633"/>
      <point x="401" y="675"/>
      <point x="316" y="675" type="curve" smooth="yes"/>
      <point x="207" y="675"/>
      <point x="150" y="565"/>
      <point x="150" y="433" type="curve" smooth="yes"/>
      <point x="150" y="367"/>
      <point x="182" y="327"/>
      <point x="240" y="327" type="curve" smooth="yes"/>
      <point x="309" y="327"/>
      <point x="362" y="357"/>
      <point x="444" y="478" type="curve"/>
      <point x="450" y="428" type="line"/>
      <point x="375" y="320"/>
      <point x="320" y="267"/>
      <point x="207" y="267" type="curve" smooth="yes"/>
      <point x="108" y="267"/>
      <point x="55" y="333"/>
      <point x="55" y="437" type="curve" smooth="yes"/>
      <point x="55" y="581"/>
      <point x="135" y="735"/>
    </contour>
  </outline>
</glyph>
<glyph name="one.lin" format="2">
  <advance width="560"/>
  <outline>
    <contour>
      <point x="290" y="91.0" type="curve" smooth="yes"/>
      <point x="445" y="710.0" type="line"/>
      <point x="382" y="710.0" type="line"/>
      <point x="333" y="659.0"/>
      <point x="255" y="636.0"/>
      <point x="154" y="634.0" type="curve"/>
      <point x="137" y="567.0" type="line"/>
      <point x="230" y="566.0"/>
      <point x="321" y="596.0"/>
      <point x="354" y="652.0" type="curve"/>
      <point x="360" y="655.0"/>
      <point x="351" y="653.0"/>
      <point x="334" y="641.0" type="curve"/>
      <point x="197" y="91.0" type="line" smooth="yes"/>
      <point x="190" y="62.0"/>
      <point x="148" y="55.0"/>
      <point x="83" y="55.0" type="curve" smooth="yes"/>
      <point x="26" y="55.0" type="line"/>
      <point x="12" y="0.0" type="line"/>
      <point x="429" y="0.0" type="line"/>
      <point x="443" y="55.0" type="line"/>
      <point x="396" y="55.0" type="line" smooth="yes"/>
      <point x="325" y="55.0"/>
      <point x="283" y="62.0"/>
    </contour>
  </outline>
</glyph>
<glyph name="one.prop" format="2">
  <advance width="559"/>
  <outline>
    <contour>
      <point x="298" y="91" type="curve" smooth="yes"/>
      <point x="435" y="639" type="line"/>
      <point x="372" y="639" type="line"/>
      <point x="323" y="588"/>
      <point x="245" y="565"/>
      <point x="144" y="563" type="curve"/>
      <point x="127" y="496" type="line"/>
      <point x="220" y="495"/>
      <point x="311" y="525"/>
      <point x="344" y="581" type="curve"/>
      <point x="350" y="584"/>
      <point x="341" y="582"/>
      <point x="324" y="570" type="curve"/>
      <point x="205" y="91" type="line" smooth="yes"/>
      <point x="198" y="62"/>
      <point x="156" y="55"/>
      <point x="91" y="55" type="curve" smooth="yes"/>
      <point x="34" y="55" type="line"/>
      <point x="20" y="0" type="line"/>
      <point x="437" y="0" type="line"/>
      <point x="451" y="55" type="line"/>
      <point x="404" y="55" type="line" smooth="yes"/>
      <point x="333" y="55"/>
      <point x="291" y="62"/>
    </contour>
  </outline>
</glyph>
<glyph name="six.old" format="2">
  <advance width="560"/>
  <outline>
    <contour>
      <point x="247" y="-10" type="curve" smooth="yes"/>
      <point x="107" y="-10"/>
      <point x="41" y="64"/>
      <point x="41" y="197" type="curve" smooth="yes"/>
      <point x="41" y="454"/>
      <point x="190" y="728"/>
      <point x="578" y="740" type="curve"/>
      <point x="570" y="675" type="line"/>
      <point x="171" y="667"/>
      <point x="132" y="333"/>
      <point x="132" y="184" type="curve" smooth="yes"/>
      <point x="132" y="92"/>
      <point x="167" y="50"/>
      <point x="252" y="50" type="curve" smooth="yes"/>
      <point x="361" y="50"/>
      <point x="417" y="157"/>
      <point x="417" y="299" type="curve" smooth="yes"/>
      <point x="417" y="367"/>
      <point x="385" y="408"/>
      <point x="327" y="408" type="curve" smooth="yes"/>
      <point x="258" y="408"/>
      <point x="205" y="378"/>
      <point x="123" y="247" type="curve"/>
      <point x="127" y="307" type="line"/>
      <point x="195" y="415"/>
      <point x="253" y="468"/>
      <point x="355" y="468" type="curve" smooth="yes"/>
      <point x="459" y="468"/>
      <point x="512" y="401"/>
      <point x="512" y="294" type="curve" smooth="yes"/>
      <point x="512" y="141"/>
      <point x="433" y="-10"/>
    </contour>
  </outline>
</glyph>
<glyph name="six.oldprop" format="2">
  <advance width="589"/>
  <outline>
    <contour>
      <point x="566" y="680" type="line"/>
      <point x="220" y="651"/>
      <point x="134" y="425"/>
      <point x="134" y="189" type="curve" smooth="yes"/>
      <point x="134" y="82"/>
      <point x="184" y="50"/>
      <point x="264" y="50" type="curve" smooth="yes"/>
      <point x="399" y="50"/>
      <point x="453" y="173"/>
      <point x="453" y="306" type="curve" smooth="yes"/>
      <point x="453" y="375"/>
      <point x="426" y="408"/>
      <point x="343" y="408" type="curve" smooth="yes"/>
      <point x="251" y="408"/>
      <point x="193" y="348"/>
      <point x="131" y="275" type="curve"/>
      <point x="135" y="325" type="line"/>
      <point x="185" y="393"/>
      <point x="261" y="468"/>
      <point x="365" y="468" type="curve" smooth="yes"/>
      <point x="482" y="468"/>
      <point x="548" y="407"/>
      <point x="548" y="296" type="curve" smooth="yes"/>
      <point x="548" y="169"/>
      <point x="464" y="-10"/>
      <point x="262" y="-10" type="curve" smooth="yes"/>
      <point x="130" y="-10"/>
      <point x="41" y="62"/>
      <point x="41" y="205" type="curve" smooth="yes"/>
      <point x="41" y="502"/>
      <point x="220" y="718"/>
      <point x="572" y="740" type="curve"/>
    </contour>
  </outline>
</glyph>
<glyph name="two.old" format="2">
  <advance width="560"/>
  <outline>
    <contour>
      <point x="256" y="72" type="line" smooth="yes"/>
      <point x="338.0" y="72.0"/>
      <point x="372" y="79"/>
      <point x="384" y="113" type="curve" smooth="yes"/>
      <point x="418" y="213" type="line"/>
      <point x="482" y="213" type="line"/>
      <point x="433" y="0" type="line"/>
      <point x="-11" y="0" type="line"/>
      <point x="14" y="101" type="line"/>
      <point x="322" y="278"/>
      <point x="418.0" y="332"/>
      <point x="418" y="448" type="curve" smooth="yes"/>
      <point x="418" y="508"/>
      <point x="391" y="530"/>
      <point x="314" y="530" type="curve" smooth="yes"/>
      <point x="246.0" y="530.0"/>
      <point x="195" y="508"/>
      <point x="163" y="485" type="curve"/>
      <point x="170" y="503"/>
      <point x="221" y="544"/>
      <point x="218" y="530" type="curve" smooth="yes"/>
      <point x="181" y="383" type="line"/>
      <point x="90" y="383" type="line"/>
      <point x="128" y="533" type="line"/>
      <point x="158" y="553"/>
      <point x="239" y="589"/>
      <point x="318" y="589" type="curve" smooth="yes"/>
      <point x="434" y="589"/>
      <point x="512" y="545"/>
      <point x="512" y="448" type="curve" smooth="yes"/>
      <point x="512.0" y="301.0"/>
      <point x="302" y="207"/>
      <point x="35" y="56" type="curve"/>
      <point x="20" y="48"/>
      <point x="21" y="66"/>
      <point x="35" y="72" type="curve"/>
    </contour>
  </outline>
</glyph>
<glyph name="zero.lin" format="2">
  <advance width="560"/>
  <outline>
    <contour>
      <point x="331" y="735" type="curve" smooth="yes"/>
      <point x="119.0" y="735.0"/>
      <point x="29" y="439.0"/>
      <point x="29" y="221" type="curve" smooth="yes"/>
      <point x="29" y="82"/>
      <point x="100" y="-11"/>
      <point x="228" y="-11" type="curve" smooth="yes"/>
      <point x="440.0" y="-11.0"/>
      <point x="530.0" y="285.0"/>
      <point x="530" y="503" type="curve" smooth="yes"/>
      <point x="530" y="642"/>
      <point x="459" y="735"/>
    </contour>
    <contour>
      <point x="228" y="47" type="curve" smooth="yes"/>
      <point x="150.0" y="47"/>
      <point x="118" y="91"/>
      <point x="118" y="185" type="curve" smooth="yes"/>
      <point x="118" y="237"/>
      <point x="125" y="298"/>
      <point x="141" y="380" type="curve" smooth="yes"/>
      <point x="179" y="576"/>
      <point x="237" y="677"/>
      <point x="331" y="677" type="curve" smooth="yes"/>
      <point x="409.0" y="677.0"/>
      <point x="441" y="633"/>
      <point x="441" y="539" type="curve" smooth="yes"/>
      <point x="441" y="487"/>
      <point x="434" y="426"/>
      <point x="418" y="344" type="curve" smooth="yes"/>
      <point x="380" y="148"/>
      <point x="322" y="47"/>
    </contour>
  </outline>
</glyph>
